<?xml version="1.0" encoding="UTF-8"?>
<svg id="Layer_1" xmlns="http://www.w3.org/2000/svg" width="207" height="49" version="1.1" viewBox="0 0 207 49">
  <!-- Generator: Adobe Illustrator 29.0.0, SVG Export Plug-In . SVG Version: 2.1.0 Build 186)  -->
  <defs>
    <style>
      .st0 {
        fill: #fff;
      }

      .st1 {
        fill: #299aea;
      }

      .st2 {
        fill: #033c85;
        font-family: CalisMTBol, 'Calisto MT';
        font-size: 18.5px;
      }

      .st3 {
        fill: #2998eb;
      }

      .st4 {
        fill: #2999e9;
      }

      .st5 {
        fill: #003a88;
      }

      .st6 {
        fill: #023d89;
      }

      .st7 {
        fill: #023d87;
      }
    </style>
  </defs>
  <g>
    <path class="st3" d="M15.4,1.6c-3.5-.6-10,.7-12.8,3.3s-.6.6-.9,1.1-.5,1-.6,1.3c-.3,2.1,0,8.4,0,8.4,0,0,.6,1.7.9,2.2,2.2,3.3,6.5,5,10.1,6.3,1.2.4,3.7,1.2,4.9,1.4s5,.6,6.1.6,0,.3,0,.4c-.2,2.3-.4,10,.2,13.1s.5,1.3.5,1.3c0,0,1.1,1.4,1.5,1.7.6.6,1.6,1.5,2.3,1.9,1,.6,2.5,1.5,3.5,1.8s2.5.9,3.1,1.1c1.6.3,4.2.8,5.8.9s5.4,0,7.4-.2,3.7-.5,5.2-1,3.3-.9,5.7-2.3,1.2-.6,2.4-1.4,2.4-1.8,2-2.5c-.5-1.1-5-.5-5-.5,0,0-.1,2-7.4,4.2-2.2.7-7,.7-9.3.6-2.1,0-6-.8-8.1-1.7-3-1.4-3.7-2.4-4.6-3.6s-.4-1.5-.4-1.5v-14.3h-.9c-1.3,0-4.4,0-5.7-.2-2.3-.3-4.1-.8-5.6-1.1s-4.2-1.6-5.4-2.3-2.7-1.9-3.4-2.8-1-1.7-1.1-2.3c-.3-1.9-.1-5.5,0-7.4s.4-1.5.7-1.9c1.2-1.3,3.4-1.9,5.1-2.3.7-.1,2.8-.1,3.6-.2s.5-1.9,0-2.2Z"/>
    <path class="st5" d="M22.8,2.7c0,1.9-.9,2.2-3.8,2.2s-3.9-.3-3.9-2.2,1.2-2.2,3.9-2.2,3.8.4,3.8,2.2Z"/>
    <path class="st1" d="M39.4,1.4s3.1,0,4.2.2,2,.3,3.7.7,2.2.7,3.2,1.4,1.7,1.4,1.7,1.4c0,0,.4.3.8,1.3s.3.7.3,2.1c-.1,8.5,0,8.3,0,8.3h-4.6s-.1-7.4-.2-9.9-1.1-1.5-1.7-2-2-.7-3-1-4.4-.4-4.4-.4V1.4Z"/>
    <path class="st5" d="M39.6,2.7c0,1.9-.9,2.2-3.8,2.2s-3.9-.3-3.9-2.2,1.2-2.2,3.9-2.2,3.8.4,3.8,2.2Z"/>
    <g>
      <path class="st7" d="M38.7,15.1c-.1.1-.5.2-.5.2h-21.4s-.3,0-.5-.2-.2-.6-.2-.6v-2.8c0-.2.1-.5.2-.6s.4-.2.5-.2h21.5c.2,0,.4.1.5.3s.1.4.1.6v2.5s0,.5-.2.6Z"/>
      <path class="st7" d="M23.2,19.2c-.3,0-.4-.3-.4-.3V7.7c0,0,0-.5.4-.7s1.2,0,1.2,0h6c.4,0,1,.1,1.3.2s.5.5.5.6c0,2.9,0,8.4,0,11.3s-.3.2-.6.3-.9,0-1.4,0h-5.5s-1.1,0-1.3-.1Z"/>
    </g>
  </g>
  <ellipse class="st4" cx="60.6" cy="36.9" rx="8.8" ry="5.3"/>
  <ellipse class="st0" cx="61.1" cy="37" rx="4.6" ry="2.6"/>
  <ellipse class="st6" cx="61.3" cy="37" rx="2.3" ry="1.4"/>
  <text class="st2" transform="translate(32.2 31.6) scale(1 1)"><tspan x="0" y="0" xml:space="preserve"> E - C h a n n e l i n g</tspan></text>
</svg>